<svg version="1.2" xmlns="http://www.w3.org/2000/svg" viewBox="0 0 225 90" width="225" height="90">
	<title>default-monochrome-white</title>
	<style>
		.s0 { fill: #ffffff } 
		.s1 { fill: #ecdf64 } 
	</style>
	<g id="3bc8fbb8-6905-4e19-a68c-c54d1f83ad44">
		<path class="s0" d="m92.5 55.9q0-2.2-0.2-4.4-0.1-2.1-0.3-3.8-0.2-1.9-0.4-3.6l-1.6-0.3v-0.3q0.5 0.1 1 0.1 0.5 0.1 1.2 0.1 0.7 0.1 1.6 0.1 0.9 0 1.6-0.1 0.7 0 1.1-0.1 0.5 0 0.9-0.1v0.3l-1.5 0.3q-0.1 1.5-0.2 3.4-0.2 1.6-0.2 3.6-0.1 2.1-0.1 4.4 0 3 0.1 5.9 0.2 3 0.3 5.4 0.2 2.8 0.4 5.4l1.6 0.3v0.3q-0.5-0.1-1.1-0.2-0.5 0-1.2-0.1-0.8 0-1.7 0-1 0-1.7 0-0.7 0.1-1.1 0.1-0.5 0.1-0.8 0.2v-0.3l1.2-0.2q0.3-2 0.6-4.5 0.2-2.2 0.3-5.2 0.2-3 0.2-6.7zm13.7-26.7q-0.3 1-0.5 2.5-0.2 1.5-0.3 3.4-0.1 1.9-0.1 4.1 0 2.1 0 4.3 0 1.5-0.1 3.8 0 2.2 0 4.8-0.1 2.5-0.1 5.2 0 2.6 0 4.8 0 2.2 0.1 3.8 0 1.6 0.2 2 0.4 0.8 0.9 1.5 0.6 0.6 1.7 0.7-1.1 0.8-1.9 1.5-0.9 0.7-1.6 1.4-0.5-0.3-1-0.8-0.4-0.4-0.7-0.9-0.3-0.5-0.5-1-0.2-0.5-0.2-0.9 0-0.7 0-2.5 0-1.8 0-4.2 0-2.4 0-5.1 0.1-2.8 0.1-5.4 0-2.6 0.1-4.9 0-2.3 0-3.8 0-3.3 0-5.7 0-2.3 0-4.1-0.1-1.7-0.2-2.9-0.1-1.1-0.3-1.9 0.9 0 1.8-0.5 0.9-0.4 1.9-1 1-0.7 2-1.5 1-0.7 2.1-1.4 1.1-0.6 2.2-1.1 1.1-0.4 2.2-0.4 1.6 0 2.8 0.5 1.1 0.5 1.8 1.4 0.7 0.8 1 1.9 0.3 1 0.3 2.2 0 2.7-0.9 5.1-0.8 2.3-2.3 4.2-1.4 2-3.2 3.5-1.9 1.6-3.8 2.8-4.5 2.9-10.2 4.7 5.6-1.8 10.1-4.7 1.8-1.2 3.6-2.8 1.8-1.6 3.2-3.5 1.5-1.9 2.3-4.3 0.9-2.3 0.9-5 0-1.1-0.3-2.1-0.2-1.1-0.9-1.8-0.6-0.8-1.7-1.3-1.1-0.5-2.7-0.5-1.6 0-3 0.7-1.4 0.7-2.4 1.6-1 1-1.6 2-0.6 1-0.8 1.6zm9.2 0q-0.3 1-0.5 2.5-0.2 1.5-0.3 3.4-0.1 1.9-0.1 4.1 0 2.1 0 4.3 0 1.5-0.1 3.8 0 2.2-0.1 4.8 0 2.5 0 5.2-0.1 2.6-0.1 4.8 0.1 2.2 0.1 3.8 0.1 1.6 0.3 2 0.3 0.8 0.9 1.5 0.6 0.6 1.7 0.7-1.1 0.8-1.9 1.5-0.9 0.7-1.6 1.4-0.5-0.3-1-0.8-0.4-0.4-0.7-0.9-0.3-0.5-0.5-1-0.2-0.5-0.2-0.9-0.1-0.7-0.1-2.5 0-1.8 0.1-4.2 0-2.4 0-5.1 0.1-2.8 0.1-5.4 0-2.6 0-4.9 0-2.3 0-3.8 0-3.3 0.1-5.7 0-2.3-0.1-4.1 0-1.7-0.1-2.9-0.1-1.1-0.3-1.9 0.9 0 1.8-0.5 0.9-0.4 1.9-1 1-0.7 2-1.5 1-0.7 2.1-1.4 1.1-0.6 2.2-1.1 1.1-0.4 2.2-0.4 1.6 0 2.7 0.5 1.1 0.5 1.9 1.4 0.6 0.8 1 1.9 0.3 1 0.3 2.2 0 2.7-0.9 5.1-0.9 2.3-2.3 4.2-1.4 2-3.3 3.5-1.8 1.6-3.7 2.8-4.5 2.9-10.2 4.7 5.6-1.8 10-4.7 1.9-1.2 3.7-2.8 1.8-1.6 3.2-3.5 1.4-1.9 2.3-4.3 0.9-2.3 0.9-5 0-1.1-0.3-2.1-0.3-1.1-0.9-1.8-0.6-0.8-1.7-1.3-1.1-0.5-2.7-0.5-1.7 0-3 0.7-1.4 0.7-2.4 1.6-1 1-1.6 2-0.6 1-0.8 1.6zm20.1 39.8q0.1 0.3 0.3 0.6 0.2 0.3 0.5 0.5 0.2 0.2 0.6 0.3 0.4 0.1 1-0.1-1.3 0.7-2.6 1.3-1.2 0.6-2.2 1.3-0.8-0.4-1-1.4-0.2-0.9-0.2-2.4-0.5 0.4-1.1 1-0.6 0.7-1.4 1.2-0.7 0.6-1.6 1.1-0.8 0.4-1.9 0.4-0.3 0-0.8-0.1-0.4-0.2-0.9-0.5-0.5-0.2-0.9-0.7-0.4-0.4-0.6-1.1-0.1-0.3-0.1-0.8-0.1-0.5-0.1-1 0-0.6 0-1.1 0-0.4 0-0.8 0-1.2 0-2.2 0-1 0-1.8-0.1-0.8-0.3-1.3-0.2-0.5-0.7-0.7-0.3-0.1-0.7-0.2-0.1 0-0.3 0 0.7-0.2 1.4-0.6 0.6-0.2 1.3-0.7 0.8-0.4 1.5-1 0.6 0.2 0.8 0.8 0.2 0.7 0.2 1.7 0 1-0.1 2.1-0.1 1.2-0.1 2.4 0 0.9 0.1 1.8 0.2 0.8 0.6 1.4 0.4 0.7 1.1 1 0.6 0.4 1.7 0.4 0.9 0 1.7-0.4 0.7-0.4 1.2-0.8 0.1-0.7 0.1-1.3 0-0.6 0-1.3 0-1.1 0.1-2 0-0.9 0-1.6-0.1-0.7-0.2-1.1-0.1-0.4-0.5-0.6-0.1-0.1-0.4-0.1-0.2 0-0.5-0.1-0.3 0-0.5 0 1-0.3 2-0.7 0.8-0.3 1.7-0.7 0.8-0.5 1.5-1 0 0.4-0.1 1.2 0 0.9 0 2 0 1.1 0 2.3-0.1 1.3 0 2.4 0 1.1 0.1 1.9 0.1 0.8 0.3 1.1zm13-10.7q0.4 0 0.9 0 0.5 0 0.8 0.2-0.3 0.4-0.6 1.1-0.3 0.7-0.5 1.3-0.3 0.7-0.5 1.5-0.2-0.1-0.6-0.2-0.2-0.1-0.6-0.2-0.4-0.1-1-0.1-0.8 0-1.4 0.5-0.5 0.4-0.9 1.2-0.4 0.8-0.5 1.7-0.2 1-0.3 1.9 0 1.7 0 2.6 0.1 0.9 0.1 1.5-0.4 0.1-0.9 0.3-0.4 0.1-0.9 0.4-0.4 0.2-0.9 0.4-0.4 0.2-0.8 0.4 0.2-1.3 0.3-2.7 0.1-1.4 0.1-2.8 0-1.3 0-2.5 0-1.2-0.2-2.2-0.1-0.9-0.3-1.5-0.2-0.5-0.5-0.6-0.1 0-0.3 0-0.2 0-0.4 0-0.2 0-0.4 0 0.8-0.2 1.6-0.6 0.7-0.3 1.5-0.8 0.8-0.4 1.6-0.9 0 0.4 0.1 1 0 0.7 0.1 1.5 0.1 0.8 0.1 1.8 0 0.9 0.1 1.8 0.4-1 1-2 0.6-1.1 1.3-2 0.6-0.9 1.4-1.5 0.7-0.5 1.5-0.5zm13.4 11.3q0.8 0 1.6-0.2 0.7-0.2 1.2-0.5 0.7-0.3 1.2-0.7-0.7 1.3-1.8 2.3-1 0.9-2.4 1.6-1.4 0.7-3.3 0.7-1.3 0-2.5-0.4-1.2-0.5-2.2-1.4-0.9-0.9-1.5-2.1-0.5-1.3-0.5-2.9 0-1.4 0.4-2.5 0.5-1.1 1.2-2 0.7-0.8 1.6-1.3 0.9-0.6 1.8-0.9 2.8-1.2 3.8-1.2 1.1 0 1.9 0.4 0.8 0.4 1.4 0.8 0.6 0.5 1.1 1.2l-9.6 3.9q0.2 1.2 0.6 2.2 0.4 0.9 1.1 1.6 0.7 0.7 1.9 1.1 1.1 0.3 3 0.3zm-4.7-9.8q-0.4 0-0.8 0.3-0.4 0.2-0.7 0.5-0.3 0.4-0.5 0.8-0.1 0.5-0.1 0.9 0 0.5 0 0.9 0 0.4 0.1 0.9l4.9-2.3q-0.3-0.5-0.7-1-0.4-0.3-1-0.7-0.5-0.3-1.2-0.3zm24.5 3.6q0.2 0.6 0.6 1.6 0.5 1.1 0.9 2.2 0.5 1.2 1 2 0.4 0.9 0.8 0.9-0.9 0.5-1.9 1.2-0.9 0.7-1.6 1.5-0.1-0.7-0.5-1.8-0.4-1.2-1-2.5-0.6 0.5-1.4 1.3-0.9 0.7-1.8 1.4-1 0.6-2 1.1-1.1 0.5-2 0.5-0.6 0-1.4-0.2-0.7-0.2-1.2-0.6-0.6-0.3-1-0.8-0.3-0.6-0.3-1.3 0-0.8 0.8-1.7 0.8-1 2.1-1.9 1.2-0.9 2.7-1.8 1.4-0.9 2.7-1.6-0.9-1.2-1.8-1.7-0.7-0.5-1.7-0.5-0.4 0-1.1 0.2-0.6 0.3-1.2 0.6-0.8 0.3-1.5 0.7 1.6-1.1 3.1-2 0.6-0.4 1.3-0.7 0.7-0.4 1.3-0.7 0.6-0.3 1.2-0.5 0.5-0.1 0.9-0.1 0.7 0 1.3 0.6 0.6 0.6 1.2 1.5 0.5 0.9 0.8 1.7 0.4 0.9 0.7 1.4zm-5.7 6.5q0.7 0 1.3-0.2 0.6-0.2 1.1-0.6 0.5-0.3 0.8-0.9 0.3-0.5 0.3-1.1-0.3-0.4-0.5-0.8-0.3-0.5-0.5-0.9-0.2-0.5-0.5-1-0.2-0.5-0.5-0.8-0.6 0.2-1.6 0.7-0.9 0.4-1.7 0.9-0.8 0.6-1.4 1.3-0.6 0.7-0.6 1.4 0 0.4 0.3 0.8 0.3 0.3 0.8 0.6 0.5 0.3 1.2 0.5 0.7 0.1 1.5 0.1z"/>
	</g>
	<g id="e9b93dd1-0656-434e-a738-6b04d440a957">
		<path class="s1" d="m43.5 35.8c-1.9 0.6-3.6 1.6-5.2 2.8-1.6 1.2-3 2.6-4.2 4.2-1.1 1.7-2 3.5-2.7 5.4-0.6 1.9-0.9 3.8-0.9 5.8 0 2.6 0.5 5.1 1.5 7.5 1 2.3 2.4 4.4 4.2 6.2 1.8 1.8 3.9 3.3 6.3 4.2 2.3 1 4.8 1.5 7.4 1.5 2 0 4-0.3 5.9-0.9 1.9-0.6 3.7-1.5 5.3-2.7 1.6-1.2 3.1-2.6 4.2-4.2 1.2-1.6 2.2-3.4 2.8-5.3q-1.2 1.6-2.7 2.8-1.6 1.2-3.3 2.1-1.8 0.9-3.7 1.3-2 0.4-3.9 0.5c-2.3 0-4.6-0.5-6.7-1.4-2.2-0.9-4.1-2.2-5.7-3.8-1.6-1.6-2.9-3.5-3.8-5.7-0.9-2.1-1.3-4.4-1.3-6.7q0-1.9 0.4-3.8 0.4-2 1.3-3.7 0.8-1.8 2.1-3.3 1.2-1.6 2.7-2.8z"/>
		<path class="s1" d="m57.7 44.8l2.6-9.2 2.6 9.2 9.2 2.6-9.2 2.6-2.6 9.2-2.6-9.2-9.2-2.6zm17-15.1l1.7-5.9 1.7 5.9 5.8 1.6-5.8 1.7-1.7 5.8-1.7-5.8-5.8-1.7z"/>
	</g>
</svg>